<?xml version="1.0" encoding="UTF-8" standalone="no"?>
<svg
   version="1.0"
   width="200pt"
   height="76.07pt"
   viewBox="0 0 200 76.07"
   preserveAspectRatio="xMidYMid"
   id="svg4"
   sodipodi:docname="logo.svg"
   inkscape:version="1.3 (1:1.3+202307231459+0e150ed6c4)"
   xmlns:inkscape="http://www.inkscape.org/namespaces/inkscape"
   xmlns:sodipodi="http://sodipodi.sourceforge.net/DTD/sodipodi-0.dtd"
   xmlns:xlink="http://www.w3.org/1999/xlink"
   xmlns="http://www.w3.org/2000/svg"
   xmlns:svg="http://www.w3.org/2000/svg">
  <defs
     id="defs4">
    <linearGradient
       id="linearGradient16"
       inkscape:collect="always">
      <stop
         style="stop-color:#300099;stop-opacity:1;"
         offset="0"
         id="stop17" />
      <stop
         style="stop-color:#1817a0;stop-opacity:1;"
         offset="0.72355962"
         id="stop19" />
      <stop
         style="stop-color:#002b99;stop-opacity:1;"
         offset="1"
         id="stop18" />
    </linearGradient>
    <linearGradient
       inkscape:collect="always"
       xlink:href="#linearGradient16"
       id="linearGradient18"
       x1="19.657553"
       y1="11.2"
       x2="372.71771"
       y2="144.77611"
       gradientUnits="userSpaceOnUse"
       gradientTransform="matrix(1.8929998,0,0,1.8929998,4.4575553,7.4999983)" />
    <linearGradient
       inkscape:collect="always"
       xlink:href="#linearGradient16"
       id="linearGradient19"
       gradientUnits="userSpaceOnUse"
       x1="19.657553"
       y1="11.2"
       x2="372.71771"
       y2="144.77611"
       gradientTransform="matrix(1.8929998,0,0,1.8929998,4.4575553,7.4999983)" />
    <linearGradient
       inkscape:collect="always"
       xlink:href="#linearGradient16"
       id="linearGradient20"
       gradientUnits="userSpaceOnUse"
       x1="19.657553"
       y1="11.2"
       x2="372.71771"
       y2="144.77611"
       gradientTransform="matrix(1.8929998,0,0,1.8929998,4.4575553,7.4999983)" />
    <linearGradient
       inkscape:collect="always"
       xlink:href="#linearGradient16"
       id="linearGradient21"
       gradientUnits="userSpaceOnUse"
       x1="19.657553"
       y1="11.2"
       x2="372.71771"
       y2="144.77611"
       gradientTransform="matrix(1.8929998,0,0,1.8929998,4.4575553,7.4999983)" />
    <linearGradient
       inkscape:collect="always"
       xlink:href="#linearGradient16"
       id="linearGradient22"
       gradientUnits="userSpaceOnUse"
       x1="19.657553"
       y1="11.2"
       x2="372.71771"
       y2="144.77611"
       gradientTransform="matrix(1.8929998,0,0,1.8929998,4.4575553,7.4999983)" />
    <linearGradient
       inkscape:collect="always"
       xlink:href="#linearGradient16"
       id="linearGradient23"
       gradientUnits="userSpaceOnUse"
       x1="19.657553"
       y1="11.2"
       x2="372.71771"
       y2="144.77611"
       gradientTransform="matrix(1.8929998,0,0,1.8929998,4.4575553,7.4999983)" />
    <clipPath
       clipPathUnits="userSpaceOnUse"
       id="clipPath6">
      <rect
         style="fill:#000000;stroke-width:1.15937;stroke-miterlimit:13.1;paint-order:markers fill stroke"
         id="rect7"
         width="13.941773"
         height="75.810112"
         x="159.32169"
         y="166.18582" />
    </clipPath>
  </defs>
  <sodipodi:namedview
     id="namedview4"
     pagecolor="#ffffff"
     bordercolor="#cccccc"
     borderopacity="1"
     inkscape:showpageshadow="0"
     inkscape:pageopacity="1"
     inkscape:pagecheckerboard="0"
     inkscape:deskcolor="#d1d1d1"
     inkscape:document-units="pt"
     inkscape:zoom="3.6011588"
     inkscape:cx="141.34339"
     inkscape:cy="29.434969"
     inkscape:window-width="1850"
     inkscape:window-height="1016"
     inkscape:window-x="70"
     inkscape:window-y="27"
     inkscape:window-maximized="1"
     inkscape:current-layer="svg4" />
  <g
     id="g8"
     style="fill:url(#linearGradient18);stroke-width:1.89301"
     transform="matrix(0.52826202,0,0,0.52826202,-2.3547558,-3.961961)"
     inkscape:export-filename="logo.svg"
     inkscape:export-xdpi="96"
     inkscape:export-ydpi="96">
    <path
       d="M 189.75755,8.5 23.757552,9 l -4.1,2.2 c -5.2,2.8 -9.9,7.7 -12.3,12.7 -1.8,3.9 -1.9,7.9 -2.4,65.9 l -0.5,61.7 178.699998,-0.2 178.6,-0.3 5.8,-2.8 c 6.1,-3.1 11.8,-9.3 13.6,-15 0.5,-1.9 1.1,-29.1 1.4,-64.5 l 0.5,-61.2 -13.7,0.2 c -7.5,0.2 -88.3,0.5 -179.6,0.8 z m 99.7,27.2 c 0.1,0.2 0.5,18.5 0.8,40.8 l 0.5,40.5 3.8,1.8 c 2,1 3.7,2.3 3.7,2.8 0,0.5 -6.8,0.9 -15.5,0.9 -13.1,0 -15.5,-0.2 -15.5,-1.5 0,-0.8 0.9,-1.5 2,-1.5 1.1,0 2.9,-0.9 4,-2 1.9,-1.9 2,-3.3 2,-37.4 0,-39 0.1,-38.5 -6.1,-37.2 -2.7,0.5 -3,0.3 -2.7,-1.6 0.2,-1.9 1.5,-2.5 7.8,-3.9 6.6,-1.5 14.6,-2.4 15.2,-1.7 z M 68.257552,42.5 c 0,1.3 -0.7,2 -2,2 -4.1,0 -7,2.2 -8.1,6.4 -1.6,5.8 -0.6,47.7 1.2,53.1 2.1,6.1 7.7,11.1 14,12.4 10.4,2.3 18.4,-0.8 22.9,-8.9 2.5,-4.5 2.5,-4.7 2.5,-30 0,-22.6 -0.2,-25.9 -1.8,-28.8 -1.2,-2.2 -2.8,-3.5 -4.7,-3.9 -2.1,-0.4 -3,-1.1 -3,-2.5 0,-1.7 0.8,-1.8 13.699998,-1.6 14.6,0.3 17.5,1.4 10.8,4.2 -6.1,2.6 -6.8,5.6 -7.6,33.1 -0.3,13.2 -1.1,25.4 -1.6,27.1 -4.899998,14.7 -15.299998,20.4 -33.499998,18.4 -9.5,-1.1 -16.4,-4 -21.1,-8.8 -6.8,-6.9 -7.1,-8.6 -7.7,-38.8 -0.5,-29.5 -0.6,-29.7 -6.3,-31 -4.2,-0.9 -4.7,-1.2 -4,-2.9 0.4,-1.2 3.6,-1.5 18.4,-1.5 17.2,0 17.9,0.1 17.9,2 z m 111.299998,1.3 c 7.7,3.8 10.7,8.4 11.4,17 1,11.5 -3.1,18.4 -13.6,23.1 l -6.1,2.7 7.1,9.7 c 9.4,12.8 15.2,18.7 20.9,21.1 2.6,1.1 5,2.7 5.4,3.6 0.5,1.3 -1,1.5 -10.5,1.5 -7.6,0 -11.8,-0.4 -13.7,-1.4 -4.3,-2.3 -10,-8.8 -18.7,-21.3 -7.7,-11.1 -8.3,-11.8 -11.8,-12.1 l -3.7,-0.3 v 12.9 c 0,14.7 0.8,16.8 7,18.1 2.1,0.4 3.6,1.4 3.8,2.4 0.3,1.6 -1.2,1.7 -18.3,1.7 -17.1,0 -18.6,-0.1 -18.3,-1.7 0.2,-1 1.7,-2 3.8,-2.4 7,-1.5 7,-1.4 7,-36.3 0,-34.6 -0.2,-35.4 -6.2,-37.1 -4.3,-1.2 -5.2,-2 -4.3,-3.5 0.5,-0.9 7.9,-1.1 26.9,-0.8 l 26.1,0.3 z m 159,4.7 c 2.6,3.7 4.7,7.3 4.7,7.9 0,2.2 -2,1.9 -7.1,-1.4 -3,-1.9 -6,-3.5 -6.7,-3.5 -0.7,0 -3.8,1.6 -6.8,3.5 -5.3,3.4 -7.4,3.7 -7.4,1.2 0.1,-0.7 2.3,-4.2 5.1,-8 4.8,-6.5 5.1,-6.7 9.2,-6.7 4.1,0.1 4.4,0.3 9,7 z m -91.7,21.1 c 5.5,2.6 11.7,9.6 13.3,14.9 0.7,2.2 1.2,6.8 1.2,10 0.1,17.2 -11.4,29.2 -28.1,29.2 -19.2,0 -31.5,-16.2 -26.6,-35.1 2.7,-10.6 8.9,-17.5 18.8,-20.7 5.7,-1.8 15.8,-1.1 21.4,1.7 z m 90.9,-2 c 4.9,1.2 11.3,6.2 14.4,11.3 2.7,4.3 4.3,12.6 2.9,14.3 -0.8,1 -5.7,1.3 -18.4,1.3 -17.4,0 -17.4,0 -17.4,2.2 0.1,3.4 3.4,10 6.6,13 7.5,7 18,6.1 23,-1.9 1,-1.5 1.9,-3 2.1,-3.2 0.5,-0.8 3.3,2.2 3.3,3.6 0,0.8 -1.3,3.4 -3,5.8 -8.1,11.7 -28.4,13.1 -39.3,2.7 -6.9,-6.6 -9.6,-19.3 -6.3,-30.5 2.3,-7.8 9.2,-15.2 16.6,-17.7 6.4,-2.2 9.5,-2.4 15.5,-0.9 z"
       id="path1"
       style="fill:url(#linearGradient19);fill-opacity:1;stroke:none;stroke-width:0.189301" />
    <path
       d="m 147.95755,46.9 c -1.5,1.5 -1.7,4.1 -1.7,18.2 v 16.4 h 7.5 c 14.6,0 19.9,-4.7 19.9,-17.5 0,-12.1 -4.5,-16.9 -17,-18.1 -5.8,-0.5 -7.3,-0.4 -8.7,1 z"
       id="path2"
       style="fill:url(#linearGradient20);fill-opacity:1;stroke:none;stroke-width:0.189301" />
    <g
       id="g4"
       style="fill:url(#linearGradient22);fill-opacity:1;stroke-width:1.89301">
      <path
         d="m 227.05755,74.2 c -3.3,3.5 -4.8,8.9 -4.8,17.5 0,13.3 3.7,23.7 9.4,26.5 7.1,3.4 12.6,-3.2 13.4,-16.4 0.7,-11.3 -2.6,-24.4 -7.1,-28.2 -0.9,-0.6 -3,-1.4 -4.9,-1.7 -2.7,-0.5 -3.8,-0.1 -6,2.3 z"
         id="path3"
         style="fill:url(#linearGradient21);fill-opacity:1;stroke:none;stroke-width:0.189301" />
    </g>
    <path
       d="m 325.45755,73.1 c -2.7,1.9 -4.8,5.8 -6.1,11.3 l -0.9,4.1 h 11.5 11.4 l -0.7,-3.8 c -1.9,-10.5 -9,-16 -15.2,-11.6 z"
       id="path4"
       style="fill:url(#linearGradient23);fill-opacity:1;stroke:none;stroke-width:0.189301" />
  </g>
</svg>
